<?xml version="1.0" standalone="no"?>
<!DOCTYPE svg PUBLIC "-//W3C//DTD SVG 20010904//EN"
 "http://www.w3.org/TR/2001/REC-SVG-20010904/DTD/svg10.dtd">
<svg version="1.0" xmlns="http://www.w3.org/2000/svg"
 width="300.000000pt" height="300.000000pt" viewBox="0 0 300.000000 300.000000"
 preserveAspectRatio="xMidYMid meet">
<metadata>
Created by potrace 1.10, written by Peter Selinger 2001-2011
</metadata>
<g transform="translate(0.000000,300.000000) scale(0.100000,-0.100000)"
fill="#000000" stroke="none">
<path d="M20 2508 c-18 -20 -20 -35 -20 -169 0 -133 2 -149 21 -173 l20 -26
155 0 c208 0 209 1 203 229 -5 167 2 161 -200 161 -150 0 -159 -1 -179 -22z
m288 -170 l3 -108 -111 0 -110 0 0 110 0 111 108 -3 107 -3 3 -107z"/>
<path d="M512 2478 c-18 -18 -14 -56 7 -68 26 -13 276 -13 302 0 21 12 25 50
7 68 -8 8 -58 12 -158 12 -100 0 -150 -4 -158 -12z"/>
<path d="M922 2478 c-17 -17 -15 -44 4 -62 14 -14 92 -16 715 -16 464 0 707 3
720 10 21 12 25 50 7 68 -17 17 -1429 17 -1446 0z"/>
<path d="M2456 2474 c-20 -19 -20 -24 0 -52 28 -41 124 -21 124 26 0 22 -32
42 -70 42 -22 0 -45 -7 -54 -16z"/>
<path d="M2672 2478 c-7 -7 -12 -21 -12 -33 0 -31 19 -45 60 -45 36 0 70 23
70 48 0 35 -89 59 -118 30z"/>
<path d="M2882 2478 c-18 -18 -14 -56 7 -68 47 -25 111 -2 111 39 0 28 -21 41
-65 41 -23 0 -46 -5 -53 -12z"/>
<path d="M512 2258 c-18 -18 -14 -56 7 -68 13 -7 416 -10 1235 -10 1091 0
1216 2 1230 16 19 18 21 45 4 62 -17 17 -2459 17 -2476 0z"/>
<path d="M34 1956 l-34 -34 0 -422 0 -422 34 -34 34 -34 1195 0 c1074 0 1197
2 1211 16 21 20 20 37 -2 57 -17 16 -115 17 -1200 17 l-1182 0 0 400 0 400
286 2 c276 3 287 4 300 23 12 18 11 24 -2 43 -15 22 -17 22 -311 22 l-295 0
-34 -34z"/>
<path d="M816 1974 c-21 -20 -20 -37 2 -57 17 -16 105 -17 1055 -17 l1037 0 0
-400 0 -399 -141 -3 c-130 -3 -143 -5 -155 -23 -12 -18 -11 -24 2 -43 14 -21
22 -22 166 -22 l150 0 34 34 34 34 0 422 0 422 -34 34 -34 34 -1050 0 c-942 0
-1052 -2 -1066 -16z"/>
<path d="M275 1730 c-68 -33 -75 -56 -75 -230 0 -175 7 -197 75 -230 31 -15
62 -20 124 -20 92 0 121 10 121 43 0 40 -18 47 -116 47 -122 0 -124 3 -124
160 0 157 2 160 124 160 98 0 116 7 116 47 0 33 -29 43 -122 43 -63 0 -93 -5
-123 -20z"/>
<path d="M663 1730 c-67 -34 -83 -79 -83 -230 0 -154 16 -197 86 -231 80 -38
165 -17 218 55 19 25 21 42 21 176 0 134 -2 151 -21 176 -53 72 -143 94 -221
54z m137 -90 c18 -18 20 -33 20 -140 0 -139 -10 -160 -77 -160 -66 0 -73 16
-73 158 0 103 3 129 17 144 23 25 87 24 113 -2z"/>
<path d="M988 1739 c-16 -9 -18 -31 -18 -240 l0 -229 26 -12 c23 -11 29 -10
45 11 16 20 19 41 19 145 l0 121 74 -129 c90 -156 97 -164 131 -148 l25 12 0
230 0 230 -25 12 c-21 10 -29 9 -43 -6 -14 -13 -18 -41 -22 -138 l-5 -122 -69
119 c-92 161 -98 168 -138 144z"/>
<path d="M1366 1728 c-25 -35 -1 -62 58 -66 l46 -3 0 -188 c0 -169 2 -190 18
-204 23 -21 36 -21 56 -1 13 13 16 46 16 205 l0 189 44 0 c45 0 76 18 76 45 0
7 -7 21 -16 29 -12 13 -41 16 -149 16 -127 0 -135 -1 -149 -22z"/>
<path d="M1756 1734 c-24 -23 -24 -445 0 -468 12 -13 41 -16 148 -16 139 0
156 5 156 45 0 38 -19 45 -127 45 l-103 0 0 60 0 59 113 3 112 3 0 35 0 35
-112 3 -113 3 0 59 0 60 103 0 c108 0 127 7 127 45 0 40 -17 45 -156 45 -107
0 -136 -3 -148 -16z"/>
<path d="M2142 1738 c-21 -21 -14 -48 38 -138 28 -48 50 -93 50 -100 0 -7 -22
-52 -50 -100 -54 -95 -61 -124 -31 -140 31 -16 49 -2 95 77 l44 75 42 -70 c23
-39 48 -76 56 -83 20 -17 64 4 64 30 0 11 -25 63 -55 115 l-56 96 56 96 c30
52 55 104 55 115 0 26 -44 47 -64 30 -8 -7 -33 -44 -56 -82 l-41 -70 -47 78
c-47 79 -74 97 -100 71z"/>
<path d="M2527 1732 c-35 -38 -7 -72 59 -72 l44 0 0 -189 c0 -159 3 -192 16
-205 8 -9 22 -16 29 -16 7 0 21 7 29 16 13 13 16 46 16 205 l0 189 44 0 c67 0
97 38 58 73 -15 14 -42 17 -149 17 -113 0 -132 -2 -146 -18z"/>
<path d="M1621 834 c-19 -24 -21 -40 -21 -174 0 -198 -8 -190 202 -190 204 0
193 -11 193 197 0 203 10 193 -200 193 l-154 0 -20 -26z m287 -171 l-3 -108
-107 -3 -108 -3 0 111 0 110 110 0 111 0 -3 -107z"/>
<path d="M2125 835 c-24 -23 -25 -29 -25 -168 0 -131 2 -147 21 -171 l20 -26
159 0 159 0 20 26 c19 24 21 40 21 171 0 139 -1 145 -25 168 -23 24 -28 25
-175 25 -147 0 -152 -1 -175 -25z m285 -175 l0 -110 -110 0 -110 0 0 110 0
110 110 0 110 0 0 -110z"/>
<path d="M2631 841 c-28 -28 -34 -72 -30 -210 5 -167 -2 -161 200 -161 209 0
199 -9 199 191 0 133 -2 149 -21 173 l-20 26 -155 0 c-139 0 -156 -2 -173 -19z
m279 -181 l0 -111 -107 3 -108 3 -3 108 -3 107 111 0 110 0 0 -110z"/>
<path d="M16 804 c-19 -18 -21 -45 -4 -62 9 -9 143 -12 543 -12 517 0 532 1
550 20 17 18 17 21 1 45 l-16 25 -530 0 c-467 0 -530 -2 -544 -16z"/>
<path d="M1184 795 c-16 -24 -16 -27 1 -45 16 -18 31 -20 155 -20 140 0 160 5
160 41 0 42 -25 49 -165 49 -133 0 -135 0 -151 -25z"/>
<path d="M16 584 c-19 -18 -21 -45 -4 -62 17 -17 319 -17 336 0 17 17 15 44
-4 62 -23 23 -305 23 -328 0z"/>
<path d="M498 589 c-21 -12 -24 -49 -6 -67 17 -17 979 -17 996 0 17 17 15 44
-4 62 -14 14 -72 16 -492 16 -305 0 -483 -4 -494 -11z"/>
</g>
</svg>
